<?xml version="1.0" encoding="UTF-8" standalone="no"?>
<!-- Created with Inkscape (http://www.inkscape.org/) -->

<svg
   xmlns:dc="http://purl.org/dc/elements/1.1/"
   xmlns:cc="http://creativecommons.org/ns#"
   xmlns:rdf="http://www.w3.org/1999/02/22-rdf-syntax-ns#"
   xmlns:svg="http://www.w3.org/2000/svg"
   xmlns="http://www.w3.org/2000/svg"
   xmlns:sodipodi="http://sodipodi.sourceforge.net/DTD/sodipodi-0.dtd"
   xmlns:inkscape="http://www.inkscape.org/namespaces/inkscape"
   width="512"
   height="512"
   viewBox="0 0 135.46666 135.46666"
   version="1.1"
   id="svg8"
   inkscape:version="0.92.5 (2060ec1f9f, 2020-04-08)"
   sodipodi:docname="disrupsiteknologi-wrap.svg"
   inkscape:export-filename="/home/programmer/Documents/project/disrupsiteknologi.com/www/public/images/favicon.png"
   inkscape:export-xdpi="6.0000005"
   inkscape:export-ydpi="6.0000005">
  <defs
     id="defs2" />
  <sodipodi:namedview
     id="base"
     pagecolor="#ffffff"
     bordercolor="#666666"
     borderopacity="1.0"
     inkscape:pageopacity="0.0"
     inkscape:pageshadow="2"
     inkscape:zoom="0.78613281"
     inkscape:cx="93.7289"
     inkscape:cy="202.01669"
     inkscape:document-units="mm"
     inkscape:current-layer="layer1"
     showgrid="false"
     units="px"
     inkscape:window-width="1366"
     inkscape:window-height="703"
     inkscape:window-x="0"
     inkscape:window-y="0"
     inkscape:window-maximized="1" />
  <metadata
     id="metadata5">
    <rdf:RDF>
      <cc:Work
         rdf:about="">
        <dc:format>image/svg+xml</dc:format>
        <dc:type
           rdf:resource="http://purl.org/dc/dcmitype/StillImage" />
        <dc:title></dc:title>
      </cc:Work>
    </rdf:RDF>
  </metadata>
  <g
     inkscape:label="Layer 1"
     inkscape:groupmode="layer"
     id="layer1"
     transform="translate(0,-161.53335)"
     style="display:inline">
    <g
       style="fill:none"
       id="g860"
       transform="matrix(0.84666666,0,0,0.84666666,19.568557,198.98183)">
      <path
         id="path846"
         d="M 49.1836,70 H 46.2188 L 41.457,63.3965 c -1.1679,1.0482 -2.4108,2.0364 -3.7285,2.9648 -1.2877,0.8985 -2.6504,1.6921 -4.0879,2.3809 -1.4375,0.6588 -2.9199,1.1829 -4.4472,1.5723 -1.4974,0.3893 -3.0248,0.5839 -4.5821,0.5839 -3.3841,0 -6.5735,-0.6289 -9.5683,-1.8867 C 12.0781,67.724 9.47266,65.957 7.22656,63.7109 5.01042,61.4349 3.25846,58.7546 1.9707,55.6699 0.682943,52.5553 0.0390625,49.1712 0.0390625,45.5176 c 0,-3.6237 0.6438805,-6.9929 1.9316375,-10.1074 1.28776,-3.1146 3.03972,-5.8099 5.25586,-8.086 2.2461,-2.276 4.85154,-4.0579 7.81644,-5.3457 2.9948,-1.2877 6.1842,-1.9316 9.5683,-1.9316 1.0782,0 2.1862,0.0898 3.3242,0.2695 1.168,0.1797 2.2911,0.4792 3.3692,0.8984 1.1081,0.3894 2.1413,0.9135 3.0996,1.5723 0.9583,0.6589 1.7669,1.4675 2.4258,2.4258 V 2.75195 H 49.1836 Z M 36.8301,45.5176 c 0,-1.6771 -0.3294,-3.2943 -0.9883,-4.8516 -0.6289,-1.5872 -1.4974,-2.9798 -2.6055,-4.1777 -1.108,-1.2279 -2.4108,-2.2012 -3.9082,-2.9199 -1.4674,-0.7487 -3.0397,-1.1231 -4.7168,-1.1231 -1.6771,0 -3.2643,0.2995 -4.7617,0.8985 -1.4674,0.5989 -2.7552,1.4674 -3.8633,2.6054 -1.0781,1.1081 -1.9316,2.4707 -2.5605,4.0879 -0.6289,1.6172 -0.9434,3.444 -0.9434,5.4805 0,1.7669 0.3145,3.444 0.9434,5.0312 0.6289,1.5873 1.4824,2.9798 2.5605,4.1778 1.1081,1.1979 2.3959,2.1412 3.8633,2.83 1.4974,0.6888 3.0846,1.0332 4.7617,1.0332 1.6771,0 3.2494,-0.3593 4.7168,-1.0781 1.4974,-0.7487 2.8002,-1.722 3.9082,-2.9199 1.1081,-1.2279 1.9766,-2.6204 2.6055,-4.1777 0.6589,-1.5873 0.9883,-3.2194 0.9883,-4.8965 z M 73.0371,8.81641 c 0,1.13802 -0.2246,2.20119 -0.6738,3.18949 -0.4193,0.9882 -1.0033,1.8567 -1.752,2.6054 -0.7487,0.7188 -1.6321,1.3028 -2.6504,1.752 -0.9882,0.4193 -2.0514,0.6289 -3.1894,0.6289 -1.138,0 -2.2162,-0.2096 -3.2344,-0.6289 -0.9883,-0.4492 -1.8568,-1.0332 -2.6055,-1.752 -0.7187,-0.7487 -1.3027,-1.6172 -1.7519,-2.6054 -0.4193,-0.9883 -0.6289,-2.05147 -0.6289,-3.18949 0,-1.10808 0.2096,-2.15625 0.6289,-3.14453 0.4492,-1.01823 1.0332,-1.88672 1.7519,-2.60547 0.7487,-0.7487 1.6172,-1.33269 2.6055,-1.75196 1.0182,-0.449216 2.0964,-0.673825 3.2344,-0.673825 1.138,0 2.2012,0.224609 3.1894,0.673825 1.0183,0.41927 1.9017,1.00326 2.6504,1.75196 0.7487,0.71875 1.3327,1.58724 1.752,2.60547 0.4492,0.98828 0.6738,2.03645 0.6738,3.14453 z M 70.9258,70 H 58.5723 V 21.8887 h 12.3535 z"
         inkscape:connector-curvature="0"
         style="fill:#999999" />
      <path
         id="path848"
         d="m 104.438,70 c -2.965,0 -5.7505,-0.554 -8.356,-1.6621 -2.6054,-1.138 -4.8965,-2.6803 -6.873,-4.627 -1.9466,-1.9765 -3.4889,-4.2675 -4.627,-6.873 -1.108,-2.6055 -1.6621,-5.3906 -1.6621,-8.3555 V 34.1973 H 76.9453 V 21.9785 h 5.9746 V 2.75195 H 95.1387 V 21.9785 H 113.736 V 34.1973 H 95.1387 v 14.2851 c 0,1.2878 0.2396,2.5007 0.7187,3.6387 0.4792,1.1081 1.138,2.0814 1.9766,2.9199 0.8385,0.8386 1.8268,1.5124 2.965,2.0215 1.138,0.4792 2.351,0.7187 3.639,0.7187 h 9.298 V 70 Z"
         inkscape:connector-curvature="0"
         style="fill:#6494b3" />
    </g>
  </g>
</svg>
